<?xml version="1.0" standalone="no"?>
<!DOCTYPE svg PUBLIC "-//W3C//DTD SVG 20010904//EN"
 "http://www.w3.org/TR/2001/REC-SVG-20010904/DTD/svg10.dtd">
<svg version="1.0" xmlns="http://www.w3.org/2000/svg"
 width="1250.000000pt" height="1250.000000pt" viewBox="0 0 1250.000000 1250.000000"
 preserveAspectRatio="xMidYMid meet">
<metadata>
Created by potrace 1.14, written by Peter Selinger 2001-2017
</metadata>
<g transform="translate(0.000000,1250.000000) scale(0.100000,-0.100000)"
fill="#000000" stroke="none">
<path d="M10667 12108 c-49 -3 -110 -12 -135 -18 -26 -6 -50 -11 -54 -10 -5 0
-38 -11 -74 -25 -186 -70 -296 -179 -348 -344 -29 -91 -34 -143 -42 -446 -3
-126 -7 -250 -8 -275 -9 -137 -17 -249 -21 -280 -2 -19 -7 -71 -11 -115 -3
-44 -8 -87 -9 -96 -2 -9 -6 -52 -10 -95 -4 -43 -9 -81 -10 -84 -2 -3 -6 -41
-10 -85 -4 -44 -9 -82 -10 -85 -2 -3 -6 -39 -10 -80 -3 -41 -8 -82 -10 -90 -2
-8 -7 -40 -10 -70 -3 -30 -8 -66 -10 -80 -3 -14 -7 -45 -10 -70 -9 -79 -21
-163 -30 -210 -3 -14 -7 -45 -10 -70 -3 -25 -10 -71 -16 -103 -5 -32 -12 -70
-14 -85 -2 -23 -15 -94 -70 -417 -6 -30 -83 -433 -91 -470 -2 -11 -7 -36 -10
-55 -3 -19 -8 -38 -10 -41 -2 -4 -6 -24 -10 -44 -7 -49 -9 -57 -28 -136 -8
-37 -17 -78 -20 -92 -8 -44 -45 -201 -122 -512 -41 -165 -77 -310 -79 -323 -3
-12 -17 -64 -31 -115 -14 -50 -34 -123 -44 -162 -21 -78 -44 -160 -89 -315
-17 -58 -33 -113 -36 -124 -4 -18 -20 -70 -77 -256 -49 -160 -259 -800 -288
-880 -15 -41 -47 -129 -70 -195 -23 -66 -89 -215 -146 -331 -57 -116 -104
-217 -104 -225 -1 -30 -21 23 -124 336 -59 176 -110 329 -115 340 -5 11 -37
99 -71 195 -91 256 -259 699 -305 805 -7 17 -48 116 -90 220 -74 181 -188 446
-242 565 -14 30 -42 93 -63 140 -21 47 -60 132 -88 190 -27 58 -63 134 -80
170 -17 36 -38 94 -47 130 -29 112 -82 214 -175 335 -25 33 -73 107 -106 165
-432 752 -826 1188 -1129 1251 -54 10 -70 9 -150 -10 -180 -45 -369 -164 -448
-283 -41 -63 -81 -148 -93 -198 -4 -19 -9 -42 -11 -50 -11 -50 -14 -178 -4
-232 17 -98 123 -413 201 -598 21 -51 30 -85 26 -105 -3 -16 -10 -57 -16 -90
-6 -33 -13 -76 -16 -95 -3 -19 -7 -42 -9 -50 -2 -8 -7 -37 -10 -65 -4 -27 -8
-57 -10 -65 -3 -8 -7 -35 -10 -60 -3 -25 -8 -52 -10 -60 -2 -8 -7 -36 -10 -62
-5 -46 -7 -60 -25 -183 -5 -33 -12 -82 -15 -110 -3 -27 -10 -79 -15 -115 -5
-36 -12 -89 -16 -119 -3 -30 -7 -62 -9 -72 -2 -10 -7 -49 -10 -86 -4 -37 -8
-75 -10 -83 -2 -8 -7 -40 -10 -70 -5 -53 -8 -77 -19 -165 -3 -22 -15 -114 -26
-205 -28 -228 -33 -265 -45 -350 -2 -14 -7 -50 -10 -80 -7 -64 -14 -114 -20
-150 -3 -14 -7 -47 -10 -75 -3 -27 -11 -79 -16 -115 -6 -36 -12 -79 -14 -96
-4 -32 -62 -415 -69 -449 -2 -11 -7 -45 -11 -75 -4 -30 -9 -64 -12 -75 -2 -11
-8 -45 -13 -75 -6 -30 -12 -66 -15 -80 -2 -13 -7 -42 -10 -65 -3 -22 -8 -48
-11 -57 -3 -9 -7 -27 -9 -40 -3 -13 -9 -45 -15 -73 -5 -27 -11 -61 -14 -75
-17 -101 -98 -390 -109 -390 -7 0 -9 835 -3 1055 12 363 18 550 21 620 2 44 6
136 9 205 4 69 8 161 11 205 3 44 7 125 10 180 3 55 8 129 10 165 3 36 7 106
10 155 7 102 12 184 20 303 2 45 7 119 10 165 3 45 7 111 10 147 3 36 7 106
10 155 3 50 7 115 10 145 2 30 7 100 10 155 4 55 8 120 10 145 2 25 6 97 10
160 3 63 8 138 10 165 2 28 7 100 10 160 4 61 8 133 11 160 25 321 20 659 -11
867 -4 24 -8 52 -10 63 -1 11 -5 35 -9 53 -5 19 -9 43 -11 55 -6 44 -48 164
-85 242 -109 231 -312 407 -580 503 -47 17 -112 36 -145 43 -58 12 -95 32 -95
51 0 19 -82 129 -137 184 -146 146 -334 244 -591 308 -53 14 -114 27 -134 30
-21 3 -55 9 -75 12 -67 11 -125 17 -283 29 -71 6 -343 6 -440 0 -193 -10 -280
-16 -297 -19 -10 -2 -63 -7 -118 -10 -55 -4 -111 -9 -125 -11 -22 -3 -89 -10
-195 -20 -146 -13 -183 -17 -205 -20 -14 -2 -50 -7 -80 -10 -30 -3 -66 -7 -80
-10 -14 -2 -56 -7 -95 -10 -38 -3 -81 -8 -95 -10 -14 -2 -45 -6 -70 -9 -165
-20 -229 -28 -255 -31 -16 -2 -51 -7 -77 -10 -27 -3 -69 -8 -95 -11 -157 -18
-288 -154 -357 -369 -25 -81 -29 -95 -46 -195 -28 -162 -31 -463 -5 -587 25
-118 45 -181 83 -265 31 -67 118 -189 158 -221 13 -10 30 -24 37 -31 96 -94
361 -193 550 -205 4 -1 22 -31 39 -68 61 -134 154 -245 265 -320 l52 -35 -5
-116 c-2 -65 -6 -198 -9 -297 -2 -99 -8 -261 -11 -360 -10 -253 -10 -647 -1
-732 17 -164 74 -269 139 -259 65 10 113 68 145 171 16 53 18 98 17 405 -1
371 -13 805 -29 1037 l-5 73 32 -6 c18 -4 49 -9 68 -13 124 -25 392 -19 575
14 44 8 95 17 113 20 18 3 61 12 95 20 82 19 81 20 73 -17 -10 -46 -13 -58
-20 -98 -3 -19 -8 -44 -10 -55 -15 -78 -46 -245 -51 -270 -5 -29 -8 -48 -20
-105 -2 -14 -7 -38 -9 -55 -3 -16 -21 -122 -40 -235 -19 -113 -37 -221 -40
-240 -53 -335 -66 -418 -82 -535 -3 -22 -7 -51 -9 -65 -2 -14 -6 -45 -10 -70
-3 -25 -7 -61 -10 -80 -3 -19 -7 -55 -10 -80 -3 -25 -8 -56 -10 -70 -2 -14 -7
-54 -11 -90 -3 -36 -7 -78 -10 -95 -2 -16 -6 -64 -9 -105 -3 -41 -8 -82 -10
-90 -2 -8 -7 -55 -11 -105 -3 -49 -7 -103 -9 -120 -12 -122 -19 -348 -19 -560
0 -272 7 -432 28 -625 3 -25 8 -74 12 -110 3 -36 8 -67 9 -70 2 -3 7 -37 10
-75 4 -39 9 -73 11 -77 3 -4 7 -26 10 -50 31 -229 175 -742 248 -883 9 -17 16
-34 16 -39 0 -4 32 -72 71 -150 225 -448 544 -786 959 -1018 58 -32 144 -75
193 -95 84 -35 97 -44 217 -157 80 -75 362 -276 388 -276 4 0 23 -10 42 -23
45 -30 220 -107 333 -146 259 -91 556 -139 837 -136 152 1 171 4 248 30 409
139 750 659 1001 1525 34 118 119 449 127 495 3 17 9 46 14 65 5 19 11 46 14
60 3 14 15 72 26 130 12 58 24 116 26 130 2 14 11 61 19 105 8 44 17 96 20
115 20 127 16 128 64 -10 51 -148 205 -603 228 -675 8 -27 19 -59 24 -70 4
-11 39 -117 78 -235 139 -426 214 -670 213 -685 0 -5 -2 -64 -5 -130 -15 -406
155 -714 498 -901 67 -37 164 -81 195 -89 129 -31 190 -50 190 -57 0 -18 103
-160 162 -224 72 -77 155 -138 253 -187 65 -33 146 -64 188 -72 10 -3 26 -6
35 -9 63 -18 227 -33 332 -30 314 8 578 156 792 442 131 177 313 521 457 867
10 25 24 56 51 120 12 28 30 73 40 100 10 28 39 106 65 175 127 336 364 1077
456 1430 11 41 29 104 39 140 18 62 47 172 125 475 35 136 111 454 121 505 3
14 9 39 14 55 7 26 42 177 54 240 9 43 87 392 97 430 5 22 16 72 23 110 8 39
30 149 50 245 20 96 39 189 42 205 2 17 18 98 34 180 16 83 32 166 35 185 3
19 21 118 40 220 18 102 36 199 39 215 2 17 16 100 30 185 15 85 29 171 31
190 3 19 8 51 11 70 4 19 8 44 9 55 2 11 6 34 8 50 3 17 9 55 13 85 4 30 8 57
9 60 1 6 14 91 20 130 2 14 6 48 10 75 3 28 10 77 15 110 5 33 12 83 15 110 3
28 8 61 10 75 9 64 15 109 20 152 2 26 7 58 10 70 2 13 7 50 10 83 2 33 7 69
9 80 2 11 7 49 10 85 4 36 8 75 10 85 2 11 7 58 11 105 4 47 8 92 10 100 2 8
6 49 9 90 4 41 9 86 11 100 2 14 7 59 10 100 4 41 8 91 10 110 2 19 7 73 10
120 4 47 8 101 10 120 2 19 6 78 10 130 3 52 8 111 10 130 2 19 6 87 10 150 4
63 8 135 10 160 2 25 7 110 10 190 25 511 28 776 11 857 -38 183 -160 329
-356 426 -134 66 -224 96 -357 119 l-73 12 -44 91 c-72 148 -221 287 -388 363
-133 61 -335 93 -501 80z m-313 -491 c12 -30 20 -73 32 -167 22 -176 21 -890
-1 -1210 -11 -161 -40 -434 -50 -470 -2 -8 -6 -31 -9 -50 -5 -34 -9 -53 -22
-115 -25 -124 -89 -261 -138 -299 -28 -21 -35 -22 -66 -12 -34 11 -35 12 -34
66 1 95 22 402 39 560 2 25 7 77 10 115 3 39 7 81 9 95 3 14 7 61 11 105 4 44
8 94 10 110 5 40 15 138 20 200 9 94 16 160 20 200 5 44 34 332 41 410 2 28 6
64 9 80 2 17 7 46 9 65 3 19 8 58 11 85 4 28 9 61 10 75 9 69 31 166 42 183
10 17 34 4 47 -26z m1407 -501 c116 -52 205 -110 228 -147 12 -19 16 -46 15
-91 -2 -35 -5 -157 -9 -273 -3 -115 -8 -230 -10 -255 -2 -25 -6 -106 -10 -180
-3 -74 -8 -151 -10 -170 -3 -19 -7 -75 -10 -125 -2 -49 -7 -115 -10 -145 -2
-30 -7 -89 -10 -130 -3 -41 -8 -91 -10 -110 -2 -19 -6 -69 -10 -110 -3 -41 -9
-97 -12 -125 -3 -27 -7 -66 -8 -85 -1 -19 -5 -62 -9 -95 -3 -33 -8 -85 -11
-115 -3 -30 -8 -73 -10 -95 -5 -48 -24 -221 -30 -285 -3 -25 -9 -85 -15 -135
-6 -49 -13 -108 -15 -130 -3 -22 -12 -96 -21 -165 -8 -69 -17 -143 -19 -165
-6 -55 -16 -135 -20 -155 -2 -9 -6 -41 -10 -71 -3 -30 -24 -180 -46 -334 -23
-154 -42 -293 -45 -310 -3 -30 -14 -95 -19 -126 -2 -9 -6 -34 -9 -55 -4 -22
-13 -82 -22 -134 -8 -52 -17 -106 -19 -120 -6 -44 -55 -323 -70 -400 -8 -41
-17 -91 -20 -110 -3 -19 -21 -115 -40 -213 -19 -98 -37 -192 -40 -210 -4 -18
-11 -52 -16 -77 -6 -25 -13 -56 -15 -70 -3 -14 -14 -68 -25 -120 -11 -52 -22
-106 -25 -120 -3 -14 -20 -95 -40 -181 -19 -86 -37 -166 -39 -179 -2 -12 -6
-29 -9 -38 -3 -9 -7 -28 -10 -42 -25 -137 -210 -851 -308 -1190 -28 -96 -54
-188 -58 -205 -50 -194 -321 -1010 -462 -1385 -170 -456 -355 -833 -486 -990
-48 -58 -172 -180 -184 -180 -4 0 -13 -7 -21 -15 -24 -24 -129 -73 -192 -90
-154 -42 -361 11 -559 141 l-48 32 53 23 c261 112 405 255 619 614 232 391
512 1084 735 1825 13 41 48 158 79 260 31 102 77 257 102 345 61 216 125 446
129 468 2 10 7 27 10 37 3 10 8 27 10 37 28 113 180 731 190 773 15 56 90 394
98 440 3 14 10 43 15 65 6 22 13 54 16 70 3 17 7 41 10 55 6 26 13 60 21 95
18 85 97 475 100 495 5 32 12 67 30 160 8 41 16 86 18 100 3 14 12 63 21 110
8 47 18 102 22 124 3 21 8 48 10 60 6 28 82 490 89 541 4 22 12 81 20 130 8
50 17 113 20 140 4 28 8 57 10 65 2 8 7 42 10 75 4 33 8 67 10 75 2 8 6 33 9
55 17 124 66 518 71 565 3 30 8 69 10 85 2 17 7 57 10 90 4 33 8 74 10 90 2
17 6 57 9 90 10 105 17 169 21 205 4 33 7 57 20 223 8 99 15 173 20 235 6 59
10 112 20 272 3 52 8 115 10 140 2 25 7 101 10 170 4 69 8 157 10 195 8 140
18 392 19 463 l1 74 29 -6 c16 -4 73 -26 127 -50z m-9533 -485 c19 -12 -34
-54 -131 -103 -97 -48 -412 -154 -603 -202 -133 -33 -160 -39 -229 -51 -16 -3
-52 -10 -80 -15 -135 -25 -257 -35 -435 -35 -125 0 -161 3 -185 16 -41 23 -63
49 -69 82 -6 33 11 42 101 53 32 3 60 8 63 9 3 2 26 6 50 10 25 3 95 15 155
25 121 21 146 25 220 36 28 3 59 8 70 10 11 3 157 27 325 54 168 28 316 53
330 55 14 3 57 10 95 15 39 6 77 12 85 15 8 2 38 7 65 10 28 3 66 10 85 15 47
11 72 11 88 1z m1988 -927 c74 -35 137 -86 172 -139 48 -72 95 -233 116 -395
21 -156 27 -546 13 -790 -5 -69 -10 -161 -12 -205 -11 -188 -15 -254 -20 -315
-2 -36 -7 -101 -10 -145 -13 -214 -21 -331 -30 -435 -3 -36 -7 -92 -10 -125
-2 -33 -7 -94 -10 -135 -4 -41 -8 -104 -10 -140 -4 -60 -8 -126 -20 -290 -2
-36 -7 -112 -10 -170 -3 -58 -8 -130 -10 -160 -2 -30 -7 -111 -10 -180 -3 -69
-8 -152 -10 -185 -2 -33 -7 -127 -11 -210 -3 -82 -7 -184 -9 -225 -26 -590
-27 -1593 -1 -1737 2 -10 7 -40 10 -68 4 -27 9 -62 12 -77 5 -32 -3 -34 -52
-13 -96 40 -180 129 -239 255 -51 107 -99 292 -120 465 -4 28 -8 61 -10 75
-29 199 -25 993 10 1715 12 243 14 290 20 375 3 47 7 123 10 170 3 47 7 114
10 150 10 135 15 207 20 280 8 125 16 242 20 300 2 30 7 98 10 150 3 52 8 120
10 150 3 30 7 97 10 149 3 52 7 122 10 155 7 90 20 286 30 451 3 44 7 107 9
140 3 33 8 110 11 170 4 61 8 130 10 155 22 332 22 670 -1 829 -6 42 -6 43 17
36 13 -4 47 -18 75 -31z m-1571 -678 c-32 -186 -29 -171 -45 -241 -7 -33 -18
-65 -24 -72 -16 -18 -292 -87 -426 -107 -19 -3 -46 -8 -60 -12 -14 -3 -102 -7
-196 -9 -144 -3 -184 0 -250 17 -43 10 -89 22 -102 25 -12 3 -25 10 -29 16 -8
13 -11 107 -3 112 3 2 58 15 122 30 163 36 379 104 513 160 17 7 50 20 75 30
95 38 249 108 380 171 36 18 66 31 68 29 1 -1 -9 -68 -23 -149z m3739 -3467
c16 -48 179 -482 197 -524 5 -11 18 -47 29 -80 12 -33 25 -69 30 -80 35 -83
52 -160 45 -213 -3 -31 -8 -75 -11 -97 -2 -22 -10 -83 -18 -135 -8 -52 -17
-117 -21 -145 -3 -27 -10 -75 -15 -105 -5 -30 -11 -71 -14 -90 -3 -19 -8 -46
-10 -60 -3 -14 -7 -41 -10 -60 -5 -32 -18 -105 -45 -250 -6 -30 -12 -66 -15
-80 -2 -14 -14 -68 -25 -120 -11 -52 -22 -106 -25 -120 -10 -57 -70 -296 -111
-440 -160 -569 -367 -1011 -568 -1216 -107 -108 -230 -168 -347 -167 -68 0
-260 13 -280 18 -8 2 -37 6 -65 10 -27 3 -57 8 -65 10 -8 2 -26 6 -40 9 -73
12 -250 66 -250 76 0 4 13 7 30 8 93 2 280 82 388 165 56 43 160 141 202 192
194 233 372 588 513 1022 65 198 183 641 203 763 3 14 7 33 10 42 3 10 7 28 9
40 9 53 13 74 19 98 3 14 8 36 10 50 3 14 10 50 16 80 20 102 87 499 96 569 3
25 12 89 19 141 14 93 29 205 40 305 3 28 8 61 10 75 3 14 8 52 11 85 3 33 7
71 9 85 13 106 18 167 16 178 -1 6 2 12 7 12 6 0 17 -23 26 -51z"/>
</g>
</svg>
