<?xml version="1.0" encoding="UTF-8" standalone="no"?>
<!-- Generator: Adobe Illustrator 14.0.0, SVG Export Plug-In . SVG Version: 6.00 Build 43363)  -->

<svg
   version="1.1"
   id="Calque_1"
   x="0px"
   y="0px"
   width="256px"
   height="256px"
   viewBox="0 0 256 256"
   enable-background="new 0 0 256 256"
   xml:space="preserve"
   sodipodi:docname="Tumblr.svg"
   inkscape:version="1.1.2 (0a00cf5339, 2022-02-04, custom)"
   xmlns:inkscape="http://www.inkscape.org/namespaces/inkscape"
   xmlns:sodipodi="http://sodipodi.sourceforge.net/DTD/sodipodi-0.dtd"
   xmlns="http://www.w3.org/2000/svg"
   xmlns:svg="http://www.w3.org/2000/svg"><defs
   id="defs17" /><sodipodi:namedview
   id="namedview15"
   pagecolor="#ffffff"
   bordercolor="#666666"
   borderopacity="1.0"
   inkscape:pageshadow="2"
   inkscape:pageopacity="0.0"
   inkscape:pagecheckerboard="0"
   showgrid="false"
   inkscape:zoom="2.4609375"
   inkscape:cx="128"
   inkscape:cy="127.59365"
   inkscape:window-width="1920"
   inkscape:window-height="979"
   inkscape:window-x="0"
   inkscape:window-y="473"
   inkscape:window-maximized="1"
   inkscape:current-layer="g12" />
<g
   id="g12">
	<g
   id="g6">
		<g
   id="g4">
			<rect
   x="0.24"
   y="0.167"
   fill="#314358"
   width="255.52"
   height="256"
   id="rect2" />
		</g>
	</g>
	<g
   id="g10">
		<path
   fill="#FFFFFF"
   d="M168.08,170.918c-2.969,1.416-8.647,2.648-12.881,2.754c-12.783,0.342-15.264-8.979-15.367-15.736v-49.705    h32.065V84.055h-31.954V43.382c0,0-23.008,0-23.383,0c-0.385,0-1.057,0.337-1.152,1.192c-1.368,12.448-7.192,34.296-31.416,43.032    v20.624h16.16v52.167c0,17.863,13.176,43.24,47.959,42.641c11.736-0.201,24.77-5.113,27.648-9.354L168.08,170.918"
   id="path8" />
	</g>
<path
   style="fill:#ffffff;stroke:none;stroke-width:0.406349;fill-opacity:1"
   d="M 0.40634921,128.20317 V 0.40634921 H 128 255.59365 V 128.20317 256 H 128 0.40634921 Z M 156.0993,202.3823 c 7.65341,-1.31485 15.07044,-4.14584 18.3871,-7.01814 l 1.58481,-1.37248 -3.76891,-11.35774 c -2.0729,-6.24677 -3.88969,-11.49223 -4.03731,-11.6566 -0.14762,-0.16437 -1.22558,0.0649 -2.39547,0.50937 -3.25753,1.23777 -9.21139,2.1458 -12.47269,1.90223 -5.84555,-0.43657 -9.57041,-2.88578 -11.8651,-7.80164 l -1.13808,-2.43809 -0.11519,-27.32226 -0.11518,-27.32225 15.9628,-0.10632 15.96281,-0.10632 V 96.101587 83.911111 l -15.94921,-0.106305 -15.9492,-0.106301 V 63.385758 43.073016 l -11.88572,0.0062 c -6.53714,0.0033 -12.11108,0.149378 -12.38653,0.324348 -0.27546,0.174966 -0.85948,2.412166 -1.29783,4.971552 -3.14585,18.367334 -13.31223,31.952429 -28.575956,38.185375 l -2.336507,0.954116 v 10.490303 10.4903 h 8.126984 8.126984 v 27.57852 c 0,29.90264 0.06999,31.06196 2.274235,37.65885 3.64776,10.91714 11.78832,20.14744 21.85401,24.7795 9.30515,4.28207 21.22366,5.72313 32.00915,3.8702 z"
   id="path1039" /></g>
</svg>
